<svg width="49" height="71" viewBox="0 0 49 71" fill="none" xmlns="http://www.w3.org/2000/svg">
<path d="M2.35079 1.85819C1.76837 2.05233 1.24141 2.6403 1.11938 3.23381C0.880869 4.37647 2.02352 5.51913 3.16618 5.28061C4.02594 5.10311 4.69156 4.2267 4.60836 3.40022C4.54735 2.8178 4.10914 2.21874 3.55446 1.94694C3.2161 1.78608 2.69469 1.74725 2.35079 1.85819Z" fill="#DD8100"/>
<path d="M9.4508 1.85819C8.86837 2.05233 8.34142 2.6403 8.21939 3.23381C7.98087 4.37647 9.12353 5.51913 10.2662 5.28061C11.126 5.10311 11.7916 4.2267 11.7084 3.40022C11.6474 2.8178 11.2092 2.21874 10.6545 1.94694C10.3161 1.78608 9.7947 1.74725 9.4508 1.85819Z" fill="#DD8100"/>
<path d="M16.5508 1.85819C15.9684 2.05233 15.4414 2.6403 15.3194 3.23381C15.0809 4.37647 16.2235 5.51913 17.3662 5.28061C18.2259 5.10311 18.8915 4.2267 18.8083 3.40022C18.7473 2.8178 18.3091 2.21874 17.7544 1.94694C17.4161 1.78608 16.8947 1.74725 16.5508 1.85819Z" fill="#DD8100"/>
<path d="M23.6508 1.85819C23.0684 2.05233 22.5414 2.6403 22.4194 3.23381C22.1809 4.37647 23.3235 5.51913 24.4662 5.28061C25.3259 5.10311 25.9916 4.2267 25.9084 3.40022C25.8474 2.8178 25.4091 2.21874 24.8545 1.94694C24.5161 1.78608 23.9947 1.74725 23.6508 1.85819Z" fill="#DD8100"/>
<path d="M30.7508 1.85819C30.1683 2.05233 29.6414 2.6403 29.5194 3.23381C29.2808 4.37647 30.4235 5.51913 31.5662 5.28061C32.4259 5.10311 33.0916 4.2267 33.0084 3.40022C32.9473 2.8178 32.5091 2.21874 31.9545 1.94694C31.6161 1.78608 31.0947 1.74725 30.7508 1.85819Z" fill="#DD8100"/>
<path d="M37.8508 1.85819C37.2684 2.05233 36.7414 2.6403 36.6194 3.23382C36.4807 3.8828 36.7969 4.58725 37.407 5.00327C38.0006 5.41374 38.6773 5.41929 39.2763 5.01991C40.2581 4.36538 40.3913 3.14507 39.5703 2.32968C39.0988 1.85264 38.4221 1.6696 37.8508 1.85819Z" fill="#DD8100"/>
<path d="M44.9508 1.85819C44.3683 2.05233 43.8414 2.6403 43.7193 3.23382C43.5807 3.8828 43.8968 4.58725 44.507 5.00327C45.1005 5.41374 45.7773 5.41929 46.3763 5.01991C47.3581 4.36538 47.4913 3.14507 46.6703 2.32968C46.1988 1.85264 45.5221 1.6696 44.9508 1.85819Z" fill="#DD8100"/>
<path d="M2.35079 8.9582C1.76837 9.15234 1.24141 9.7403 1.11938 10.3338C0.880869 11.4765 2.02352 12.6191 3.16618 12.3806C4.02594 12.2031 4.69156 11.3267 4.60836 10.5002C4.54735 9.9178 4.10914 9.31874 3.55446 9.04695C3.2161 8.88609 2.69469 8.84726 2.35079 8.9582Z" fill="#DD8100"/>
<path d="M9.4508 8.9582C8.86837 9.15234 8.34142 9.7403 8.21939 10.3338C7.98087 11.4765 9.12353 12.6191 10.2662 12.3806C11.126 12.2031 11.7916 11.3267 11.7084 10.5002C11.6474 9.9178 11.2092 9.31874 10.6545 9.04695C10.3161 8.88609 9.7947 8.84726 9.4508 8.9582Z" fill="#DD8100"/>
<path d="M16.5508 8.9582C15.9684 9.15234 15.4414 9.7403 15.3194 10.3338C15.0809 11.4765 16.2235 12.6191 17.3662 12.3806C18.2259 12.2031 18.8915 11.3267 18.8083 10.5002C18.7473 9.9178 18.3091 9.31874 17.7544 9.04695C17.4161 8.88609 16.8947 8.84726 16.5508 8.9582Z" fill="#DD8100"/>
<path d="M23.6508 8.9582C23.0684 9.15234 22.5414 9.7403 22.4194 10.3338C22.1809 11.4765 23.3235 12.6191 24.4662 12.3806C25.3259 12.2031 25.9916 11.3267 25.9084 10.5002C25.8474 9.9178 25.4091 9.31874 24.8545 9.04695C24.5161 8.88609 23.9947 8.84726 23.6508 8.9582Z" fill="#DD8100"/>
<path d="M30.7508 8.9582C30.1683 9.15234 29.6414 9.7403 29.5194 10.3338C29.2808 11.4765 30.4235 12.6191 31.5662 12.3806C32.4259 12.2031 33.0916 11.3267 33.0084 10.5002C32.9473 9.9178 32.5091 9.31874 31.9545 9.04695C31.6161 8.88609 31.0947 8.84726 30.7508 8.9582Z" fill="#DD8100"/>
<path d="M37.8508 8.95818C37.2684 9.15232 36.7414 9.74029 36.6194 10.3338C36.4807 10.9828 36.7969 11.6872 37.407 12.1033C38.0006 12.5137 38.6773 12.5193 39.2763 12.1199C40.2581 11.4654 40.3913 10.2451 39.5703 9.42966C39.0988 8.95263 38.4221 8.76958 37.8508 8.95818Z" fill="#DD8100"/>
<path d="M44.9508 8.95818C44.3683 9.15232 43.8414 9.74029 43.7193 10.3338C43.5807 10.9828 43.8968 11.6872 44.507 12.1033C45.1005 12.5137 45.7773 12.5193 46.3763 12.1199C47.3581 11.4654 47.4913 10.2451 46.6703 9.42966C46.1988 8.95263 45.5221 8.76958 44.9508 8.95818Z" fill="#DD8100"/>
<path d="M2.35079 16.0582C1.76837 16.2523 1.24141 16.8403 1.11938 17.4338C0.880869 18.5765 2.02352 19.7191 3.16618 19.4806C4.02594 19.3031 4.69156 18.4267 4.60836 17.6002C4.54735 17.0178 4.10914 16.4187 3.55446 16.1469C3.2161 15.9861 2.69469 15.9472 2.35079 16.0582Z" fill="#DD8100"/>
<path d="M9.4508 16.0582C8.86837 16.2523 8.34142 16.8403 8.21939 17.4338C7.98087 18.5765 9.12353 19.7191 10.2662 19.4806C11.126 19.3031 11.7916 18.4267 11.7084 17.6002C11.6474 17.0178 11.2092 16.4187 10.6545 16.1469C10.3161 15.9861 9.7947 15.9472 9.4508 16.0582Z" fill="#DD8100"/>
<path d="M16.5508 16.0582C15.9684 16.2523 15.4414 16.8403 15.3194 17.4338C15.0809 18.5765 16.2235 19.7191 17.3662 19.4806C18.2259 19.3031 18.8915 18.4267 18.8083 17.6002C18.7473 17.0178 18.3091 16.4187 17.7544 16.1469C17.4161 15.9861 16.8947 15.9472 16.5508 16.0582Z" fill="#DD8100"/>
<path d="M23.6508 16.0582C23.0684 16.2523 22.5414 16.8403 22.4194 17.4338C22.1809 18.5765 23.3235 19.7191 24.4662 19.4806C25.3259 19.3031 25.9916 18.4267 25.9084 17.6002C25.8474 17.0178 25.4091 16.4187 24.8545 16.1469C24.5161 15.9861 23.9947 15.9472 23.6508 16.0582Z" fill="#DD8100"/>
<path d="M30.7508 16.0582C30.1683 16.2523 29.6414 16.8403 29.5194 17.4338C29.2808 18.5765 30.4235 19.7191 31.5662 19.4806C32.4259 19.3031 33.0916 18.4267 33.0084 17.6002C32.9473 17.0178 32.5091 16.4187 31.9545 16.1469C31.6161 15.9861 31.0947 15.9472 30.7508 16.0582Z" fill="#DD8100"/>
<path d="M37.8508 16.0582C37.2683 16.2523 36.7414 16.8403 36.6194 17.4338C36.3809 18.5765 37.5235 19.7191 38.6662 19.4806C39.5259 19.3031 40.1915 18.4267 40.1083 17.6002C40.0473 17.0178 39.6091 16.4187 39.0544 16.1469C38.7161 15.9861 38.1947 15.9472 37.8508 16.0582Z" fill="#DD8100"/>
<path d="M44.9508 16.0582C44.3683 16.2523 43.8414 16.8403 43.7193 17.4338C43.4808 18.5765 44.6235 19.7191 45.7662 19.4806C46.6259 19.3031 47.2916 18.4267 47.2084 17.6002C47.1473 17.0178 46.7091 16.4187 46.1544 16.1469C45.8161 15.9861 45.2947 15.9472 44.9508 16.0582Z" fill="#DD8100"/>
<path d="M2.35079 23.1582C1.76837 23.3523 1.24141 23.9403 1.11938 24.5338C0.880869 25.6765 2.02352 26.8191 3.16618 26.5806C4.02594 26.4031 4.69156 25.5267 4.60836 24.7002C4.54735 24.1178 4.10914 23.5187 3.55446 23.2469C3.2161 23.0861 2.69469 23.0473 2.35079 23.1582Z" fill="#DD8100"/>
<path d="M9.4508 23.1582C8.86837 23.3523 8.34142 23.9403 8.21939 24.5338C7.98087 25.6765 9.12353 26.8191 10.2662 26.5806C11.126 26.4031 11.7916 25.5267 11.7084 24.7002C11.6474 24.1178 11.2092 23.5187 10.6545 23.2469C10.3161 23.0861 9.7947 23.0473 9.4508 23.1582Z" fill="#DD8100"/>
<path d="M16.5508 23.1582C15.9684 23.3523 15.4414 23.9403 15.3194 24.5338C15.0809 25.6765 16.2235 26.8191 17.3662 26.5806C18.2259 26.4031 18.8915 25.5267 18.8083 24.7002C18.7473 24.1178 18.3091 23.5187 17.7544 23.2469C17.4161 23.0861 16.8947 23.0473 16.5508 23.1582Z" fill="#DD8100"/>
<path d="M23.6508 23.1582C23.0684 23.3523 22.5414 23.9403 22.4194 24.5338C22.1809 25.6765 23.3235 26.8191 24.4662 26.5806C25.3259 26.4031 25.9916 25.5267 25.9084 24.7002C25.8474 24.1178 25.4091 23.5187 24.8545 23.2469C24.5161 23.0861 23.9947 23.0473 23.6508 23.1582Z" fill="#DD8100"/>
<path d="M30.7508 23.1582C30.1683 23.3523 29.6414 23.9403 29.5194 24.5338C29.2808 25.6765 30.4235 26.8191 31.5662 26.5806C32.4259 26.4031 33.0916 25.5267 33.0084 24.7002C32.9473 24.1178 32.5091 23.5187 31.9545 23.2469C31.6161 23.0861 31.0947 23.0473 30.7508 23.1582Z" fill="#DD8100"/>
<path d="M37.8508 23.1582C37.2683 23.3523 36.7414 23.9403 36.6194 24.5338C36.3809 25.6765 37.5235 26.8191 38.6662 26.5806C39.5259 26.4031 40.1915 25.5267 40.1083 24.7002C40.0473 24.1178 39.6091 23.5187 39.0544 23.2469C38.7161 23.0861 38.1947 23.0473 37.8508 23.1582Z" fill="#DD8100"/>
<path d="M44.9508 23.1582C44.3683 23.3523 43.8414 23.9403 43.7193 24.5338C43.4808 25.6765 44.6235 26.8191 45.7662 26.5806C46.6259 26.4031 47.2916 25.5267 47.2084 24.7002C47.1473 24.1178 46.7091 23.5187 46.1544 23.2469C45.8161 23.0861 45.2947 23.0473 44.9508 23.1582Z" fill="#DD8100"/>
<path d="M2.35079 30.2582C1.76837 30.4523 1.24141 31.0403 1.11938 31.6338C0.880869 32.7765 2.02352 33.9191 3.16618 33.6806C4.02594 33.5031 4.69156 32.6267 4.60836 31.8002C4.54735 31.2178 4.10914 30.6187 3.55446 30.3469C3.2161 30.1861 2.69469 30.1472 2.35079 30.2582Z" fill="#DD8100"/>
<path d="M9.4508 30.2582C8.86837 30.4523 8.34142 31.0403 8.21939 31.6338C7.98087 32.7765 9.12353 33.9191 10.2662 33.6806C11.126 33.5031 11.7916 32.6267 11.7084 31.8002C11.6474 31.2178 11.2092 30.6187 10.6545 30.3469C10.3161 30.1861 9.7947 30.1472 9.4508 30.2582Z" fill="#DD8100"/>
<path d="M16.5508 30.2582C15.9684 30.4523 15.4414 31.0403 15.3194 31.6338C15.0809 32.7765 16.2235 33.9191 17.3662 33.6806C18.2259 33.5031 18.8915 32.6267 18.8083 31.8002C18.7473 31.2178 18.3091 30.6187 17.7544 30.3469C17.4161 30.1861 16.8947 30.1472 16.5508 30.2582Z" fill="#DD8100"/>
<path d="M23.6508 30.2582C23.0684 30.4523 22.5414 31.0403 22.4194 31.6338C22.1809 32.7765 23.3235 33.9191 24.4662 33.6806C25.3259 33.5031 25.9916 32.6267 25.9084 31.8002C25.8474 31.2178 25.4091 30.6187 24.8545 30.3469C24.5161 30.1861 23.9947 30.1472 23.6508 30.2582Z" fill="#DD8100"/>
<path d="M30.7508 30.2582C30.1683 30.4523 29.6414 31.0403 29.5194 31.6338C29.2808 32.7765 30.4235 33.9191 31.5662 33.6806C32.4259 33.5031 33.0916 32.6267 33.0084 31.8002C32.9473 31.2178 32.5091 30.6187 31.9545 30.3469C31.6161 30.1861 31.0947 30.1472 30.7508 30.2582Z" fill="#DD8100"/>
<path d="M37.8508 30.2582C37.2683 30.4523 36.7414 31.0403 36.6194 31.6338C36.3809 32.7765 37.5235 33.9191 38.6662 33.6806C39.5259 33.5031 40.1915 32.6267 40.1083 31.8002C40.0473 31.2178 39.6091 30.6187 39.0544 30.3469C38.7161 30.1861 38.1947 30.1472 37.8508 30.2582Z" fill="#DD8100"/>
<path d="M44.9508 30.2582C44.3683 30.4523 43.8414 31.0403 43.7193 31.6338C43.4808 32.7765 44.6235 33.9191 45.7662 33.6806C46.6259 33.5031 47.2916 32.6267 47.2084 31.8002C47.1473 31.2178 46.7091 30.6187 46.1544 30.3469C45.8161 30.1861 45.2947 30.1472 44.9508 30.2582Z" fill="#DD8100"/>
<path d="M2.35079 37.3582C1.76837 37.5523 1.24141 38.1403 1.11938 38.7338C0.880869 39.8765 2.02352 41.0191 3.16618 40.7806C4.02594 40.6031 4.69156 39.7267 4.60836 38.9002C4.54735 38.3178 4.10914 37.7187 3.55446 37.4469C3.2161 37.2861 2.69469 37.2472 2.35079 37.3582Z" fill="#DD8100"/>
<path d="M9.4508 37.3582C8.86837 37.5523 8.34142 38.1403 8.21939 38.7338C7.98087 39.8765 9.12353 41.0191 10.2662 40.7806C11.126 40.6031 11.7916 39.7267 11.7084 38.9002C11.6474 38.3178 11.2092 37.7187 10.6545 37.4469C10.3161 37.2861 9.7947 37.2472 9.4508 37.3582Z" fill="#DD8100"/>
<path d="M16.5508 37.3582C15.9684 37.5523 15.4414 38.1403 15.3194 38.7338C15.0809 39.8765 16.2235 41.0191 17.3662 40.7806C18.2259 40.6031 18.8915 39.7267 18.8083 38.9002C18.7473 38.3178 18.3091 37.7187 17.7544 37.4469C17.4161 37.2861 16.8947 37.2472 16.5508 37.3582Z" fill="#DD8100"/>
<path d="M23.6508 37.3582C23.0684 37.5523 22.5414 38.1403 22.4194 38.7338C22.1809 39.8765 23.3235 41.0191 24.4662 40.7806C25.3259 40.6031 25.9916 39.7267 25.9084 38.9002C25.8474 38.3178 25.4091 37.7187 24.8545 37.4469C24.5161 37.2861 23.9947 37.2472 23.6508 37.3582Z" fill="#DD8100"/>
<path d="M30.7508 37.3582C30.1683 37.5523 29.6414 38.1403 29.5194 38.7338C29.2808 39.8765 30.4235 41.0191 31.5662 40.7806C32.4259 40.6031 33.0916 39.7267 33.0084 38.9002C32.9473 38.3178 32.5091 37.7187 31.9545 37.4469C31.6161 37.2861 31.0947 37.2472 30.7508 37.3582Z" fill="#DD8100"/>
<path d="M37.8508 37.3582C37.2683 37.5523 36.7414 38.1403 36.6194 38.7338C36.3809 39.8765 37.5235 41.0191 38.6662 40.7806C39.5259 40.6031 40.1915 39.7267 40.1083 38.9002C40.0473 38.3178 39.6091 37.7187 39.0544 37.4469C38.7161 37.2861 38.1947 37.2472 37.8508 37.3582Z" fill="#DD8100"/>
<path d="M44.9508 37.3582C44.3683 37.5523 43.8414 38.1403 43.7193 38.7338C43.4808 39.8765 44.6235 41.0191 45.7662 40.7806C46.6259 40.6031 47.2916 39.7267 47.2084 38.9002C47.1473 38.3178 46.7091 37.7187 46.1544 37.4469C45.8161 37.2861 45.2947 37.2472 44.9508 37.3582Z" fill="#DD8100"/>
<path d="M2.35077 44.4582C1.76835 44.6523 1.2414 45.2403 1.11937 45.8338C0.980698 46.4828 1.29687 47.1873 1.90702 47.6033C2.50054 48.0137 3.17726 48.0193 3.77632 47.6199C4.75812 46.9654 4.89124 45.7451 4.0703 44.9297C3.59882 44.4526 2.9221 44.2696 2.35077 44.4582Z" fill="#DD8100"/>
<path d="M9.45079 44.4582C8.61322 44.7355 8.04744 45.6563 8.21939 46.4662C8.35806 47.1262 8.97376 47.7419 9.63384 47.8806C10.7044 48.108 11.8193 47.093 11.7084 46.0002C11.6473 45.4178 11.2091 44.8187 10.6545 44.5469C10.3161 44.3861 9.7947 44.3473 9.45079 44.4582Z" fill="#DD8100"/>
<path d="M16.5508 44.4582C15.7132 44.7355 15.1474 45.6563 15.3194 46.4662C15.4581 47.1262 16.0738 47.7419 16.7338 47.8806C17.8044 48.108 18.9193 47.093 18.8084 46.0002C18.7474 45.4178 18.3091 44.8187 17.7545 44.5469C17.4161 44.3861 16.8947 44.3473 16.5508 44.4582Z" fill="#DD8100"/>
<path d="M23.6508 44.4582C22.8132 44.7355 22.2474 45.6563 22.4194 46.4662C22.558 47.1262 23.1738 47.7419 23.8338 47.8806C24.9044 48.108 26.0193 47.093 25.9084 46.0002C25.8474 45.4178 25.4091 44.8187 24.8545 44.5469C24.5161 44.3861 23.9947 44.3473 23.6508 44.4582Z" fill="#DD8100"/>
<path d="M30.7508 44.4582C29.9132 44.7355 29.3474 45.6563 29.5194 46.4662C29.6581 47.1262 30.2738 47.7419 30.9338 47.8806C32.0044 48.108 33.1193 47.093 33.0084 46.0002C32.9474 45.4178 32.5092 44.8187 31.9545 44.5469C31.6161 44.3861 31.0947 44.3473 30.7508 44.4582Z" fill="#DD8100"/>
<path d="M37.8508 44.4582C37.2683 44.6523 36.7414 45.2403 36.6194 45.8338C36.3809 46.9765 37.5235 48.1191 38.6662 47.8806C39.5259 47.7031 40.1915 46.8267 40.1083 46.0002C40.0473 45.4178 39.6091 44.8187 39.0544 44.5469C38.7161 44.3861 38.1947 44.3473 37.8508 44.4582Z" fill="#DD8100"/>
<path d="M44.9508 44.4582C44.3683 44.6523 43.8414 45.2403 43.7193 45.8338C43.4808 46.9765 44.6235 48.1191 45.7662 47.8806C46.6259 47.7031 47.2916 46.8267 47.2084 46.0002C47.1473 45.4178 46.7091 44.8187 46.1544 44.5469C45.8161 44.3861 45.2947 44.3473 44.9508 44.4582Z" fill="#DD8100"/>
<path d="M2.35077 51.5582C1.76835 51.7523 1.2414 52.3403 1.11937 52.9338C0.980698 53.5828 1.29687 54.2873 1.90702 54.7033C2.50054 55.1138 3.17726 55.1193 3.77632 54.7199C4.75812 54.0654 4.89124 52.8451 4.0703 52.0297C3.59882 51.5527 2.9221 51.3696 2.35077 51.5582Z" fill="#DD8100"/>
<path d="M9.45079 51.5582C8.61322 51.8355 8.04744 52.7563 8.21939 53.5662C8.35806 54.2262 8.97376 54.8419 9.63384 54.9806C10.7044 55.208 11.8193 54.193 11.7084 53.1002C11.6473 52.5178 11.2091 51.9187 10.6545 51.6469C10.3161 51.4861 9.7947 51.4472 9.45079 51.5582Z" fill="#DD8100"/>
<path d="M16.5508 51.5582C15.7132 51.8355 15.1474 52.7563 15.3194 53.5662C15.4581 54.2262 16.0738 54.8419 16.7338 54.9806C17.8044 55.208 18.9193 54.193 18.8084 53.1002C18.7474 52.5178 18.3091 51.9187 17.7545 51.6469C17.4161 51.4861 16.8947 51.4472 16.5508 51.5582Z" fill="#DD8100"/>
<path d="M23.6508 51.5582C22.8132 51.8355 22.2474 52.7563 22.4194 53.5662C22.558 54.2262 23.1738 54.8419 23.8338 54.9806C24.9044 55.208 26.0193 54.193 25.9084 53.1002C25.8474 52.5178 25.4091 51.9187 24.8545 51.6469C24.5161 51.4861 23.9947 51.4472 23.6508 51.5582Z" fill="#DD8100"/>
<path d="M30.7508 51.5582C29.9132 51.8355 29.3474 52.7563 29.5194 53.5662C29.6581 54.2262 30.2738 54.8419 30.9338 54.9806C32.0044 55.208 33.1193 54.193 33.0084 53.1002C32.9474 52.5178 32.5092 51.9187 31.9545 51.6469C31.6161 51.4861 31.0947 51.4472 30.7508 51.5582Z" fill="#DD8100"/>
<path d="M37.8508 51.5582C37.2683 51.7523 36.7414 52.3403 36.6194 52.9338C36.3809 54.0765 37.5235 55.2191 38.6662 54.9806C39.5259 54.8031 40.1915 53.9267 40.1083 53.1002C40.0473 52.5178 39.6091 51.9187 39.0544 51.6469C38.7161 51.4861 38.1947 51.4472 37.8508 51.5582Z" fill="#DD8100"/>
<path d="M44.9508 51.5582C44.3683 51.7523 43.8414 52.3403 43.7193 52.9338C43.4808 54.0765 44.6235 55.2191 45.7662 54.9806C46.6259 54.8031 47.2916 53.9267 47.2084 53.1002C47.1473 52.5178 46.7091 51.9187 46.1544 51.6469C45.8161 51.4861 45.2947 51.4472 44.9508 51.5582Z" fill="#DD8100"/>
<path d="M2.35077 58.6582C1.76835 58.8523 1.2414 59.4403 1.11937 60.0338C0.980698 60.6828 1.29687 61.3873 1.90702 61.8033C2.50054 62.2138 3.17726 62.2193 3.77632 61.8199C4.75812 61.1654 4.89124 59.9451 4.0703 59.1297C3.59882 58.6526 2.9221 58.4696 2.35077 58.6582Z" fill="#DD8100"/>
<path d="M9.4508 58.6582C8.86837 58.8523 8.34142 59.4403 8.21939 60.0338C7.98087 61.1765 9.12353 62.3191 10.2662 62.0806C11.126 61.9031 11.7916 61.0267 11.7084 60.2002C11.6474 59.6178 11.2092 59.0187 10.6545 58.7469C10.3161 58.5861 9.7947 58.5472 9.4508 58.6582Z" fill="#DD8100"/>
<path d="M16.5508 58.6582C15.9684 58.8523 15.4414 59.4403 15.3194 60.0338C15.0809 61.1765 16.2235 62.3191 17.3662 62.0806C18.2259 61.9031 18.8915 61.0267 18.8083 60.2002C18.7473 59.6178 18.3091 59.0187 17.7544 58.7469C17.4161 58.5861 16.8947 58.5472 16.5508 58.6582Z" fill="#DD8100"/>
<path d="M23.6508 58.6582C23.0684 58.8523 22.5414 59.4403 22.4194 60.0338C22.1809 61.1765 23.3235 62.3191 24.4662 62.0806C25.3259 61.9031 25.9916 61.0267 25.9084 60.2002C25.8474 59.6178 25.4091 59.0187 24.8545 58.7469C24.5161 58.5861 23.9947 58.5472 23.6508 58.6582Z" fill="#DD8100"/>
<path d="M30.7508 58.6582C30.1683 58.8523 29.6414 59.4403 29.5194 60.0338C29.2808 61.1765 30.4235 62.3191 31.5662 62.0806C32.4259 61.9031 33.0916 61.0267 33.0084 60.2002C32.9473 59.6178 32.5091 59.0187 31.9545 58.7469C31.6161 58.5861 31.0947 58.5472 30.7508 58.6582Z" fill="#DD8100"/>
<path d="M37.8508 58.6582C37.2683 58.8523 36.7414 59.4403 36.6194 60.0338C36.3809 61.1765 37.5235 62.3191 38.6662 62.0806C39.5259 61.9031 40.1915 61.0267 40.1083 60.2002C40.0473 59.6178 39.6091 59.0187 39.0544 58.7469C38.7161 58.5861 38.1947 58.5472 37.8508 58.6582Z" fill="#DD8100"/>
<path d="M44.9508 58.6582C44.3683 58.8523 43.8414 59.4403 43.7193 60.0338C43.4808 61.1765 44.6235 62.3191 45.7662 62.0806C46.6259 61.9031 47.2916 61.0267 47.2084 60.2002C47.1473 59.6178 46.7091 59.0187 46.1544 58.7469C45.8161 58.5861 45.2947 58.5472 44.9508 58.6582Z" fill="#DD8100"/>
<path d="M2.35079 65.7582C1.76837 65.9523 1.24141 66.5403 1.11938 67.1338C0.880869 68.2765 2.02352 69.4191 3.16618 69.1806C4.02594 69.0031 4.69156 68.1267 4.60836 67.3002C4.54735 66.7178 4.10914 66.1187 3.55446 65.8469C3.2161 65.6861 2.69469 65.6472 2.35079 65.7582Z" fill="#DD8100"/>
<path d="M9.4508 65.7582C8.86837 65.9523 8.34142 66.5403 8.21939 67.1338C7.98087 68.2765 9.12353 69.4191 10.2662 69.1806C11.126 69.0031 11.7916 68.1267 11.7084 67.3002C11.6474 66.7178 11.2092 66.1187 10.6545 65.8469C10.3161 65.6861 9.7947 65.6472 9.4508 65.7582Z" fill="#DD8100"/>
<path d="M16.5508 65.7582C15.9684 65.9523 15.4414 66.5403 15.3194 67.1338C15.0809 68.2765 16.2235 69.4191 17.3662 69.1806C18.2259 69.0031 18.8915 68.1267 18.8083 67.3002C18.7473 66.7178 18.3091 66.1187 17.7544 65.8469C17.4161 65.6861 16.8947 65.6472 16.5508 65.7582Z" fill="#DD8100"/>
<path d="M23.6508 65.7582C23.0684 65.9523 22.5414 66.5403 22.4194 67.1338C22.1809 68.2765 23.3235 69.4191 24.4662 69.1806C25.3259 69.0031 25.9916 68.1267 25.9084 67.3002C25.8474 66.7178 25.4091 66.1187 24.8545 65.8469C24.5161 65.6861 23.9947 65.6472 23.6508 65.7582Z" fill="#DD8100"/>
<path d="M30.7508 65.7582C30.1683 65.9523 29.6414 66.5403 29.5194 67.1338C29.2808 68.2765 30.4235 69.4191 31.5662 69.1806C32.4259 69.0031 33.0916 68.1267 33.0084 67.3002C32.9473 66.7178 32.5091 66.1187 31.9545 65.8469C31.6161 65.6861 31.0947 65.6472 30.7508 65.7582Z" fill="#DD8100"/>
<path d="M37.8508 65.7582C37.2683 65.9523 36.7414 66.5403 36.6194 67.1338C36.3809 68.2765 37.5235 69.4191 38.6662 69.1806C39.5259 69.0031 40.1915 68.1267 40.1083 67.3002C40.0473 66.7178 39.6091 66.1187 39.0544 65.8469C38.7161 65.6861 38.1947 65.6472 37.8508 65.7582Z" fill="#DD8100"/>
<path d="M44.9508 65.7582C44.3683 65.9523 43.8414 66.5403 43.7193 67.1338C43.4808 68.2765 44.6235 69.4191 45.7662 69.1806C46.6259 69.0031 47.2916 68.1267 47.2084 67.3002C47.1473 66.7178 46.7091 66.1187 46.1544 65.8469C45.8161 65.6861 45.2947 65.6472 44.9508 65.7582Z" fill="#DD8100"/>
</svg>
