<svg width="60" height="59" viewBox="0 0 60 59" fill="none" xmlns="http://www.w3.org/2000/svg">
<path d="M3.05079 -3.04182C2.46836 -2.84768 1.94141 -2.25971 1.81938 -1.6662C1.58087 -0.523539 2.72352 0.619116 3.86618 0.380601C4.72594 0.203101 5.39157 -0.673305 5.30836 -1.49979C5.24735 -2.08221 4.80914 -2.68127 4.25446 -2.95307C3.9161 -3.11393 3.39469 -3.15276 3.05079 -3.04182Z" fill="#33CA7F" fill-opacity="0.22"/>
<path d="M10.1508 -3.04182C9.3132 -2.76447 8.74742 -1.84369 8.91938 -1.03385C9.05805 -0.37377 9.67375 0.241933 10.3283 0.380605C11.4044 0.608027 12.5193 -0.407051 12.4084 -1.49978C12.3473 -2.08221 11.9091 -2.68127 11.3545 -2.95307C11.0161 -3.11393 10.4947 -3.15275 10.1508 -3.04182Z" fill="#33CA7F" fill-opacity="0.22"/>
<path d="M17.2508 -3.04182C16.6684 -2.84768 16.1414 -2.25971 16.0194 -1.6662C15.7809 -0.523539 16.9235 0.619116 18.0662 0.380601C18.9259 0.203101 19.5916 -0.673305 19.5084 -1.49979C19.4473 -2.08221 19.0091 -2.68127 18.4545 -2.95307C18.1161 -3.11393 17.5947 -3.15276 17.2508 -3.04182Z" fill="#33CA7F" fill-opacity="0.22"/>
<path d="M24.3508 -3.04182C23.7684 -2.84768 23.2414 -2.25971 23.1194 -1.6662C22.8809 -0.523539 24.0235 0.619116 25.1662 0.380601C26.0259 0.203101 26.6916 -0.673305 26.6084 -1.49979C26.5473 -2.08221 26.1091 -2.68127 25.5545 -2.95307C25.2161 -3.11393 24.6947 -3.15276 24.3508 -3.04182Z" fill="#33CA7F" fill-opacity="0.22"/>
<path d="M31.4508 -3.04182C30.8684 -2.84768 30.3414 -2.25971 30.2194 -1.6662C29.9809 -0.523539 31.1235 0.619116 32.2662 0.380601C33.126 0.203101 33.7916 -0.673305 33.7084 -1.49979C33.6474 -2.08221 33.2092 -2.68127 32.6545 -2.95307C32.3161 -3.11393 31.7947 -3.15276 31.4508 -3.04182Z" fill="#33CA7F" fill-opacity="0.22"/>
<path d="M38.5508 -3.04182C37.9684 -2.84768 37.4414 -2.25971 37.3194 -1.6662C37.0809 -0.523539 38.2235 0.619116 39.3662 0.380601C40.2259 0.203101 40.8915 -0.673305 40.8083 -1.49979C40.7473 -2.08221 40.3091 -2.68127 39.7544 -2.95307C39.4161 -3.11393 38.8947 -3.15276 38.5508 -3.04182Z" fill="#33CA7F" fill-opacity="0.22"/>
<path d="M45.6508 -3.04182C45.0684 -2.84768 44.5414 -2.25971 44.4194 -1.6662C44.1809 -0.523539 45.3235 0.619116 46.4662 0.380601C47.3259 0.203101 47.9916 -0.673305 47.9084 -1.49979C47.8474 -2.08221 47.4091 -2.68127 46.8545 -2.95307C46.5161 -3.11393 45.9947 -3.15276 45.6508 -3.04182Z" fill="#33CA7F" fill-opacity="0.22"/>
<path d="M52.7508 -3.04182C52.1683 -2.84768 51.6414 -2.25971 51.5194 -1.6662C51.2808 -0.523539 52.4235 0.619116 53.5662 0.380601C54.4259 0.203101 55.0916 -0.673305 55.0084 -1.49979C54.9473 -2.08221 54.5091 -2.68127 53.9545 -2.95307C53.6161 -3.11393 53.0947 -3.15276 52.7508 -3.04182Z" fill="#33CA7F" fill-opacity="0.22"/>
<path d="M59.8508 -3.04181C59.2684 -2.84767 58.7414 -2.2597 58.6194 -1.66618C58.4807 -1.01719 58.7969 -0.312741 59.407 0.103275C60.0006 0.513744 60.6773 0.519291 61.2763 0.119916C62.2581 -0.534616 62.3913 -1.75493 61.5703 -2.57032C61.0988 -3.04735 60.4221 -3.2304 59.8508 -3.04181Z" fill="#33CA7F" fill-opacity="0.22"/>
<path d="M3.05079 4.05817C2.46836 4.25231 1.94141 4.84029 1.81938 5.4338C1.58087 6.57646 2.72352 7.71912 3.86618 7.48061C4.72594 7.30311 5.39157 6.4267 5.30836 5.60021C5.24735 5.01779 4.80914 4.41872 4.25446 4.14692C3.9161 3.98606 3.39469 3.94724 3.05079 4.05817Z" fill="#33CA7F" fill-opacity="0.22"/>
<path d="M10.1508 4.05817C9.56837 4.25231 9.04142 4.84029 8.91939 5.4338C8.68087 6.57646 9.82353 7.71912 10.9662 7.48061C11.8259 7.30311 12.4916 6.4267 12.4084 5.60021C12.3474 5.01779 11.9092 4.41872 11.3545 4.14692C11.0161 3.98606 10.4947 3.94724 10.1508 4.05817Z" fill="#33CA7F" fill-opacity="0.22"/>
<path d="M17.2508 4.05817C16.6684 4.25231 16.1414 4.84029 16.0194 5.4338C15.7809 6.57646 16.9235 7.71912 18.0662 7.48061C18.9259 7.30311 19.5916 6.4267 19.5084 5.60021C19.4473 5.01779 19.0091 4.41872 18.4545 4.14692C18.1161 3.98606 17.5947 3.94724 17.2508 4.05817Z" fill="#33CA7F" fill-opacity="0.22"/>
<path d="M24.3508 4.05817C23.7684 4.25231 23.2414 4.84029 23.1194 5.4338C22.8809 6.57646 24.0235 7.71912 25.1662 7.48061C26.0259 7.30311 26.6916 6.4267 26.6084 5.60021C26.5473 5.01779 26.1091 4.41872 25.5545 4.14692C25.2161 3.98606 24.6947 3.94724 24.3508 4.05817Z" fill="#33CA7F" fill-opacity="0.22"/>
<path d="M31.4508 4.05817C30.8684 4.25231 30.3414 4.84029 30.2194 5.4338C29.9809 6.57646 31.1235 7.71912 32.2662 7.48061C33.126 7.30311 33.7916 6.4267 33.7084 5.60021C33.6474 5.01779 33.2092 4.41872 32.6545 4.14692C32.3161 3.98606 31.7947 3.94724 31.4508 4.05817Z" fill="#33CA7F" fill-opacity="0.22"/>
<path d="M38.5508 4.05817C37.9684 4.25231 37.4414 4.84029 37.3194 5.4338C37.0809 6.57646 38.2235 7.71912 39.3662 7.48061C40.2259 7.30311 40.8915 6.4267 40.8083 5.60021C40.7473 5.01779 40.3091 4.41872 39.7544 4.14692C39.4161 3.98606 38.8947 3.94724 38.5508 4.05817Z" fill="#33CA7F" fill-opacity="0.22"/>
<path d="M45.6508 4.05817C45.0684 4.25231 44.5414 4.84029 44.4194 5.4338C44.1809 6.57646 45.3235 7.71912 46.4662 7.48061C47.3259 7.30311 47.9916 6.4267 47.9084 5.60021C47.8474 5.01779 47.4091 4.41872 46.8545 4.14692C46.5161 3.98606 45.9947 3.94724 45.6508 4.05817Z" fill="#33CA7F" fill-opacity="0.22"/>
<path d="M52.7508 4.05817C52.1683 4.25231 51.6414 4.84029 51.5194 5.4338C51.2808 6.57646 52.4235 7.71912 53.5662 7.48061C54.4259 7.30311 55.0916 6.4267 55.0084 5.60021C54.9473 5.01779 54.5091 4.41872 53.9545 4.14692C53.6161 3.98606 53.0947 3.94724 52.7508 4.05817Z" fill="#33CA7F" fill-opacity="0.22"/>
<path d="M59.8508 4.05817C59.2683 4.25231 58.7414 4.84029 58.6194 5.4338C58.3809 6.57646 59.5235 7.71912 60.6662 7.48061C61.5259 7.30311 62.1915 6.4267 62.1083 5.60021C62.0473 5.01779 61.6091 4.41872 61.0544 4.14692C60.7161 3.98606 60.1947 3.94724 59.8508 4.05817Z" fill="#33CA7F" fill-opacity="0.22"/>
<path d="M3.05079 11.1582C2.46836 11.3523 1.94141 11.9403 1.81938 12.5338C1.58087 13.6765 2.72352 14.8191 3.86618 14.5806C4.72594 14.4031 5.39157 13.5267 5.30836 12.7002C5.24735 12.1178 4.80914 11.5187 4.25446 11.2469C3.9161 11.0861 3.39469 11.0473 3.05079 11.1582Z" fill="#33CA7F" fill-opacity="0.22"/>
<path d="M10.1508 11.1582C9.56837 11.3523 9.04142 11.9403 8.91939 12.5338C8.68087 13.6765 9.82353 14.8191 10.9662 14.5806C11.8259 14.4031 12.4916 13.5267 12.4084 12.7002C12.3474 12.1178 11.9092 11.5187 11.3545 11.2469C11.0161 11.0861 10.4947 11.0473 10.1508 11.1582Z" fill="#33CA7F" fill-opacity="0.22"/>
<path d="M17.2508 11.1582C16.6684 11.3523 16.1414 11.9403 16.0194 12.5338C15.7809 13.6765 16.9235 14.8191 18.0662 14.5806C18.9259 14.4031 19.5916 13.5267 19.5084 12.7002C19.4473 12.1178 19.0091 11.5187 18.4545 11.2469C18.1161 11.0861 17.5947 11.0473 17.2508 11.1582Z" fill="#33CA7F" fill-opacity="0.22"/>
<path d="M24.3508 11.1582C23.7684 11.3523 23.2414 11.9403 23.1194 12.5338C22.8809 13.6765 24.0235 14.8191 25.1662 14.5806C26.0259 14.4031 26.6916 13.5267 26.6084 12.7002C26.5473 12.1178 26.1091 11.5187 25.5545 11.2469C25.2161 11.0861 24.6947 11.0473 24.3508 11.1582Z" fill="#33CA7F" fill-opacity="0.22"/>
<path d="M31.4508 11.1582C30.8684 11.3523 30.3414 11.9403 30.2194 12.5338C29.9809 13.6765 31.1235 14.8191 32.2662 14.5806C33.126 14.4031 33.7916 13.5267 33.7084 12.7002C33.6474 12.1178 33.2092 11.5187 32.6545 11.2469C32.3161 11.0861 31.7947 11.0473 31.4508 11.1582Z" fill="#33CA7F" fill-opacity="0.22"/>
<path d="M38.5508 11.1582C37.9684 11.3523 37.4414 11.9403 37.3194 12.5338C37.0809 13.6765 38.2235 14.8191 39.3662 14.5806C40.2259 14.4031 40.8915 13.5267 40.8083 12.7002C40.7473 12.1178 40.3091 11.5187 39.7544 11.2469C39.4161 11.0861 38.8947 11.0473 38.5508 11.1582Z" fill="#33CA7F" fill-opacity="0.22"/>
<path d="M45.6508 11.1582C45.0684 11.3523 44.5414 11.9403 44.4194 12.5338C44.1809 13.6765 45.3235 14.8191 46.4662 14.5806C47.3259 14.4031 47.9916 13.5267 47.9084 12.7002C47.8474 12.1178 47.4091 11.5187 46.8545 11.2469C46.5161 11.0861 45.9947 11.0473 45.6508 11.1582Z" fill="#33CA7F" fill-opacity="0.22"/>
<path d="M52.7508 11.1582C52.1683 11.3523 51.6414 11.9403 51.5194 12.5338C51.2808 13.6765 52.4235 14.8191 53.5662 14.5806C54.4259 14.4031 55.0916 13.5267 55.0084 12.7002C54.9473 12.1178 54.5091 11.5187 53.9545 11.2469C53.6161 11.0861 53.0947 11.0473 52.7508 11.1582Z" fill="#33CA7F" fill-opacity="0.22"/>
<path d="M59.8508 11.1582C59.2683 11.3523 58.7414 11.9403 58.6194 12.5338C58.3809 13.6765 59.5235 14.8191 60.6662 14.5806C61.5259 14.4031 62.1915 13.5267 62.1083 12.7002C62.0473 12.1178 61.6091 11.5187 61.0544 11.2469C60.7161 11.0861 60.1947 11.0473 59.8508 11.1582Z" fill="#33CA7F" fill-opacity="0.22"/>
<path d="M3.05079 18.2582C2.46836 18.4523 1.94141 19.0403 1.81938 19.6338C1.58087 20.7764 2.72352 21.9191 3.86618 21.6806C4.72594 21.5031 5.39157 20.6267 5.30836 19.8002C5.24735 19.2178 4.80914 18.6187 4.25446 18.3469C3.9161 18.1861 3.39469 18.1472 3.05079 18.2582Z" fill="#33CA7F" fill-opacity="0.22"/>
<path d="M10.1508 18.2582C9.56837 18.4523 9.04142 19.0403 8.91939 19.6338C8.68087 20.7764 9.82353 21.9191 10.9662 21.6806C11.8259 21.5031 12.4916 20.6267 12.4084 19.8002C12.3474 19.2178 11.9092 18.6187 11.3545 18.3469C11.0161 18.1861 10.4947 18.1472 10.1508 18.2582Z" fill="#33CA7F" fill-opacity="0.22"/>
<path d="M17.2508 18.2582C16.6684 18.4523 16.1414 19.0403 16.0194 19.6338C15.7809 20.7764 16.9235 21.9191 18.0662 21.6806C18.9259 21.5031 19.5916 20.6267 19.5084 19.8002C19.4473 19.2178 19.0091 18.6187 18.4545 18.3469C18.1161 18.1861 17.5947 18.1472 17.2508 18.2582Z" fill="#33CA7F" fill-opacity="0.22"/>
<path d="M24.3508 18.2582C23.7684 18.4523 23.2414 19.0403 23.1194 19.6338C22.8809 20.7764 24.0235 21.9191 25.1662 21.6806C26.0259 21.5031 26.6916 20.6267 26.6084 19.8002C26.5473 19.2178 26.1091 18.6187 25.5545 18.3469C25.2161 18.1861 24.6947 18.1472 24.3508 18.2582Z" fill="#33CA7F" fill-opacity="0.22"/>
<path d="M31.4508 18.2582C30.8684 18.4523 30.3414 19.0403 30.2194 19.6338C29.9809 20.7764 31.1235 21.9191 32.2662 21.6806C33.126 21.5031 33.7916 20.6267 33.7084 19.8002C33.6474 19.2178 33.2092 18.6187 32.6545 18.3469C32.3161 18.1861 31.7947 18.1472 31.4508 18.2582Z" fill="#33CA7F" fill-opacity="0.22"/>
<path d="M38.5508 18.2582C37.9684 18.4523 37.4414 19.0403 37.3194 19.6338C37.0809 20.7764 38.2235 21.9191 39.3662 21.6806C40.2259 21.5031 40.8915 20.6267 40.8083 19.8002C40.7473 19.2178 40.3091 18.6187 39.7544 18.3469C39.4161 18.1861 38.8947 18.1472 38.5508 18.2582Z" fill="#33CA7F" fill-opacity="0.22"/>
<path d="M45.6508 18.2582C45.0684 18.4523 44.5414 19.0403 44.4194 19.6338C44.1809 20.7764 45.3235 21.9191 46.4662 21.6806C47.3259 21.5031 47.9916 20.6267 47.9084 19.8002C47.8474 19.2178 47.4091 18.6187 46.8545 18.3469C46.5161 18.1861 45.9947 18.1472 45.6508 18.2582Z" fill="#33CA7F" fill-opacity="0.22"/>
<path d="M52.7508 18.2582C52.1683 18.4523 51.6414 19.0403 51.5194 19.6338C51.2808 20.7764 52.4235 21.9191 53.5662 21.6806C54.4259 21.5031 55.0916 20.6267 55.0084 19.8002C54.9473 19.2178 54.5091 18.6187 53.9545 18.3469C53.6161 18.1861 53.0947 18.1472 52.7508 18.2582Z" fill="#33CA7F" fill-opacity="0.22"/>
<path d="M59.8508 18.2582C59.2683 18.4523 58.7414 19.0403 58.6194 19.6338C58.3809 20.7764 59.5235 21.9191 60.6662 21.6806C61.5259 21.5031 62.1915 20.6267 62.1083 19.8002C62.0473 19.2178 61.6091 18.6187 61.0544 18.3469C60.7161 18.1861 60.1947 18.1472 59.8508 18.2582Z" fill="#33CA7F" fill-opacity="0.22"/>
<path d="M3.05079 25.3582C2.46836 25.5523 1.94141 26.1403 1.81938 26.7338C1.58087 27.8765 2.72352 29.0191 3.86618 28.7806C4.72594 28.6031 5.39157 27.7267 5.30836 26.9002C5.24735 26.3178 4.80914 25.7187 4.25446 25.4469C3.9161 25.2861 3.39469 25.2472 3.05079 25.3582Z" fill="#33CA7F" fill-opacity="0.22"/>
<path d="M10.1508 25.3582C9.56837 25.5523 9.04142 26.1403 8.91939 26.7338C8.68087 27.8765 9.82353 29.0191 10.9662 28.7806C11.8259 28.6031 12.4916 27.7267 12.4084 26.9002C12.3474 26.3178 11.9092 25.7187 11.3545 25.4469C11.0161 25.2861 10.4947 25.2472 10.1508 25.3582Z" fill="#33CA7F" fill-opacity="0.22"/>
<path d="M17.2508 25.3582C16.6684 25.5523 16.1414 26.1403 16.0194 26.7338C15.7809 27.8765 16.9235 29.0191 18.0662 28.7806C18.9259 28.6031 19.5916 27.7267 19.5084 26.9002C19.4473 26.3178 19.0091 25.7187 18.4545 25.4469C18.1161 25.2861 17.5947 25.2472 17.2508 25.3582Z" fill="#33CA7F" fill-opacity="0.22"/>
<path d="M24.3508 25.3582C23.7684 25.5523 23.2414 26.1403 23.1194 26.7338C22.8809 27.8765 24.0235 29.0191 25.1662 28.7806C26.0259 28.6031 26.6916 27.7267 26.6084 26.9002C26.5473 26.3178 26.1091 25.7187 25.5545 25.4469C25.2161 25.2861 24.6947 25.2472 24.3508 25.3582Z" fill="#33CA7F" fill-opacity="0.22"/>
<path d="M31.4508 25.3582C30.8684 25.5523 30.3414 26.1403 30.2194 26.7338C29.9809 27.8765 31.1235 29.0191 32.2662 28.7806C33.126 28.6031 33.7916 27.7267 33.7084 26.9002C33.6474 26.3178 33.2092 25.7187 32.6545 25.4469C32.3161 25.2861 31.7947 25.2472 31.4508 25.3582Z" fill="#33CA7F" fill-opacity="0.22"/>
<path d="M38.5508 25.3582C37.9684 25.5523 37.4414 26.1403 37.3194 26.7338C37.0809 27.8765 38.2235 29.0191 39.3662 28.7806C40.2259 28.6031 40.8915 27.7267 40.8083 26.9002C40.7473 26.3178 40.3091 25.7187 39.7544 25.4469C39.4161 25.2861 38.8947 25.2472 38.5508 25.3582Z" fill="#33CA7F" fill-opacity="0.22"/>
<path d="M45.6508 25.3582C45.0684 25.5523 44.5414 26.1403 44.4194 26.7338C44.1809 27.8765 45.3235 29.0191 46.4662 28.7806C47.3259 28.6031 47.9916 27.7267 47.9084 26.9002C47.8474 26.3178 47.4091 25.7187 46.8545 25.4469C46.5161 25.2861 45.9947 25.2472 45.6508 25.3582Z" fill="#33CA7F" fill-opacity="0.22"/>
<path d="M52.7508 25.3582C52.1683 25.5523 51.6414 26.1403 51.5194 26.7338C51.2808 27.8765 52.4235 29.0191 53.5662 28.7806C54.4259 28.6031 55.0916 27.7267 55.0084 26.9002C54.9473 26.3178 54.5091 25.7187 53.9545 25.4469C53.6161 25.2861 53.0947 25.2472 52.7508 25.3582Z" fill="#33CA7F" fill-opacity="0.22"/>
<path d="M59.8508 25.3582C59.2683 25.5523 58.7414 26.1403 58.6194 26.7338C58.3809 27.8765 59.5235 29.0191 60.6662 28.7806C61.5259 28.6031 62.1915 27.7267 62.1083 26.9002C62.0473 26.3178 61.6091 25.7187 61.0544 25.4469C60.7161 25.2861 60.1947 25.2472 59.8508 25.3582Z" fill="#33CA7F" fill-opacity="0.22"/>
<path d="M3.05079 32.4582C2.46836 32.6523 1.94141 33.2403 1.81938 33.8338C1.58087 34.9765 2.72352 36.1191 3.86618 35.8806C4.72594 35.7031 5.39157 34.8267 5.30836 34.0002C5.24735 33.4178 4.80914 32.8187 4.25446 32.5469C3.9161 32.3861 3.39469 32.3472 3.05079 32.4582Z" fill="#33CA7F" fill-opacity="0.22"/>
<path d="M10.1508 32.4582C9.56837 32.6523 9.04142 33.2403 8.91939 33.8338C8.68087 34.9765 9.82353 36.1191 10.9662 35.8806C11.8259 35.7031 12.4916 34.8267 12.4084 34.0002C12.3474 33.4178 11.9092 32.8187 11.3545 32.5469C11.0161 32.3861 10.4947 32.3472 10.1508 32.4582Z" fill="#33CA7F" fill-opacity="0.22"/>
<path d="M17.2508 32.4582C16.6684 32.6523 16.1414 33.2403 16.0194 33.8338C15.8807 34.4828 16.1969 35.1873 16.807 35.6033C17.4006 36.0137 18.0773 36.0193 18.6763 35.6199C19.6581 34.9654 19.7913 33.7451 18.9703 32.9297C18.4988 32.4526 17.8221 32.2696 17.2508 32.4582Z" fill="#33CA7F" fill-opacity="0.22"/>
<path d="M24.3508 32.4582C23.7684 32.6523 23.2414 33.2403 23.1194 33.8338C22.9807 34.4828 23.2969 35.1873 23.907 35.6033C24.5005 36.0137 25.1773 36.0193 25.7763 35.6199C26.7581 34.9654 26.8912 33.7451 26.0703 32.9297C25.5988 32.4526 24.9221 32.2696 24.3508 32.4582Z" fill="#33CA7F" fill-opacity="0.22"/>
<path d="M31.4508 32.4582C30.6132 32.7355 30.0474 33.6563 30.2194 34.4662C30.3581 35.1262 30.9738 35.7419 31.6338 35.8806C32.7044 36.108 33.8193 35.093 33.7084 34.0002C33.6473 33.4178 33.2091 32.8187 32.6545 32.5469C32.3161 32.3861 31.7947 32.3473 31.4508 32.4582Z" fill="#33CA7F" fill-opacity="0.22"/>
<path d="M38.5508 32.4582C37.7132 32.7355 37.1474 33.6563 37.3194 34.4662C37.4581 35.1262 38.0738 35.7419 38.7338 35.8806C39.8044 36.108 40.9193 35.093 40.8084 34.0002C40.7474 33.4178 40.3091 32.8187 39.7545 32.5469C39.4161 32.3861 38.8947 32.3473 38.5508 32.4582Z" fill="#33CA7F" fill-opacity="0.22"/>
<path d="M45.6508 32.4582C44.8132 32.7355 44.2474 33.6563 44.4194 34.4662C44.558 35.1262 45.1738 35.7419 45.8338 35.8806C46.9044 36.108 48.0193 35.093 47.9084 34.0002C47.8474 33.4178 47.4091 32.8187 46.8545 32.5469C46.5161 32.3861 45.9947 32.3473 45.6508 32.4582Z" fill="#33CA7F" fill-opacity="0.22"/>
<path d="M52.7508 32.4582C51.9132 32.7355 51.3474 33.6563 51.5194 34.4662C51.6581 35.1262 52.2738 35.7419 52.9338 35.8806C54.0044 36.108 55.1193 35.093 55.0084 34.0002C54.9474 33.4178 54.5092 32.8187 53.9545 32.5469C53.6161 32.3861 53.0947 32.3473 52.7508 32.4582Z" fill="#33CA7F" fill-opacity="0.22"/>
<path d="M59.8508 32.4582C59.2683 32.6523 58.7414 33.2403 58.6194 33.8338C58.3809 34.9765 59.5235 36.1191 60.6662 35.8806C61.5259 35.7031 62.1915 34.8267 62.1083 34.0002C62.0473 33.4178 61.6091 32.8187 61.0544 32.5469C60.7161 32.3861 60.1947 32.3472 59.8508 32.4582Z" fill="#33CA7F" fill-opacity="0.22"/>
<path d="M3.05079 39.5582C2.46836 39.7523 1.94141 40.3403 1.81938 40.9338C1.58087 42.0765 2.72352 43.2191 3.86618 42.9806C4.72594 42.8031 5.39157 41.9267 5.30836 41.1002C5.24735 40.5178 4.80914 39.9187 4.25446 39.6469C3.9161 39.4861 3.39469 39.4472 3.05079 39.5582Z" fill="#33CA7F" fill-opacity="0.22"/>
<path d="M10.1508 39.5582C9.56837 39.7523 9.04142 40.3403 8.91939 40.9338C8.68087 42.0765 9.82353 43.2191 10.9662 42.9806C11.8259 42.8031 12.4916 41.9267 12.4084 41.1002C12.3474 40.5178 11.9092 39.9187 11.3545 39.6469C11.0161 39.4861 10.4947 39.4472 10.1508 39.5582Z" fill="#33CA7F" fill-opacity="0.22"/>
<path d="M17.2508 39.5582C16.6684 39.7523 16.1414 40.3403 16.0194 40.9338C15.8807 41.5828 16.1969 42.2873 16.807 42.7033C17.4006 43.1138 18.0773 43.1193 18.6763 42.7199C19.6581 42.0654 19.7913 40.8451 18.9703 40.0297C18.4988 39.5527 17.8221 39.3696 17.2508 39.5582Z" fill="#33CA7F" fill-opacity="0.22"/>
<path d="M24.3508 39.5582C23.7684 39.7523 23.2414 40.3403 23.1194 40.9338C22.9807 41.5828 23.2969 42.2873 23.907 42.7033C24.5005 43.1138 25.1773 43.1193 25.7763 42.7199C26.7581 42.0654 26.8912 40.8451 26.0703 40.0297C25.5988 39.5527 24.9221 39.3696 24.3508 39.5582Z" fill="#33CA7F" fill-opacity="0.22"/>
<path d="M31.4508 39.5582C30.6132 39.8355 30.0474 40.7563 30.2194 41.5662C30.3581 42.2262 30.9738 42.8419 31.6338 42.9806C32.7044 43.208 33.8193 42.193 33.7084 41.1002C33.6473 40.5178 33.2091 39.9187 32.6545 39.6469C32.3161 39.4861 31.7947 39.4472 31.4508 39.5582Z" fill="#33CA7F" fill-opacity="0.22"/>
<path d="M38.5508 39.5582C37.7132 39.8355 37.1474 40.7563 37.3194 41.5662C37.4581 42.2262 38.0738 42.8419 38.7338 42.9806C39.8044 43.208 40.9193 42.193 40.8084 41.1002C40.7474 40.5178 40.3091 39.9187 39.7545 39.6469C39.4161 39.4861 38.8947 39.4472 38.5508 39.5582Z" fill="#33CA7F" fill-opacity="0.22"/>
<path d="M45.6508 39.5582C44.8132 39.8355 44.2474 40.7563 44.4194 41.5662C44.558 42.2262 45.1738 42.8419 45.8338 42.9806C46.9044 43.208 48.0193 42.193 47.9084 41.1002C47.8474 40.5178 47.4091 39.9187 46.8545 39.6469C46.5161 39.4861 45.9947 39.4472 45.6508 39.5582Z" fill="#33CA7F" fill-opacity="0.22"/>
<path d="M52.7508 39.5582C51.9132 39.8355 51.3474 40.7563 51.5194 41.5662C51.6581 42.2262 52.2738 42.8419 52.9338 42.9806C54.0044 43.208 55.1193 42.193 55.0084 41.1002C54.9474 40.5178 54.5092 39.9187 53.9545 39.6469C53.6161 39.4861 53.0947 39.4472 52.7508 39.5582Z" fill="#33CA7F" fill-opacity="0.22"/>
<path d="M59.8508 39.5582C59.2683 39.7523 58.7414 40.3403 58.6194 40.9338C58.3809 42.0765 59.5235 43.2191 60.6662 42.9806C61.5259 42.8031 62.1915 41.9267 62.1083 41.1002C62.0473 40.5178 61.6091 39.9187 61.0544 39.6469C60.7161 39.4861 60.1947 39.4472 59.8508 39.5582Z" fill="#33CA7F" fill-opacity="0.22"/>
<path d="M3.05079 46.6582C2.46836 46.8523 1.94141 47.4403 1.81938 48.0338C1.58087 49.1765 2.72352 50.3191 3.86618 50.0806C4.72594 49.9031 5.39157 49.0267 5.30836 48.2002C5.24735 47.6178 4.80914 47.0187 4.25446 46.7469C3.9161 46.5861 3.39469 46.5472 3.05079 46.6582Z" fill="#33CA7F" fill-opacity="0.22"/>
<path d="M10.1508 46.6582C9.56837 46.8523 9.04142 47.4403 8.91939 48.0338C8.68087 49.1765 9.82353 50.3191 10.9662 50.0806C11.8259 49.9031 12.4916 49.0267 12.4084 48.2002C12.3474 47.6178 11.9092 47.0187 11.3545 46.7469C11.0161 46.5861 10.4947 46.5472 10.1508 46.6582Z" fill="#33CA7F" fill-opacity="0.22"/>
<path d="M17.2508 46.6582C16.6684 46.8523 16.1414 47.4403 16.0194 48.0338C15.8807 48.6828 16.1969 49.3873 16.807 49.8033C17.4006 50.2138 18.0773 50.2193 18.6763 49.8199C19.6581 49.1654 19.7913 47.9451 18.9703 47.1297C18.4988 46.6526 17.8221 46.4696 17.2508 46.6582Z" fill="#33CA7F" fill-opacity="0.22"/>
<path d="M24.3508 46.6582C23.7684 46.8523 23.2414 47.4403 23.1194 48.0338C22.9807 48.6828 23.2969 49.3873 23.907 49.8033C24.5005 50.2138 25.1773 50.2193 25.7763 49.8199C26.7581 49.1654 26.8912 47.9451 26.0703 47.1297C25.5988 46.6526 24.9221 46.4696 24.3508 46.6582Z" fill="#33CA7F" fill-opacity="0.22"/>
<path d="M31.4508 46.6582C30.8684 46.8523 30.3414 47.4403 30.2194 48.0338C29.9809 49.1765 31.1235 50.3191 32.2662 50.0806C33.126 49.9031 33.7916 49.0267 33.7084 48.2002C33.6474 47.6178 33.2092 47.0187 32.6545 46.7469C32.3161 46.5861 31.7947 46.5472 31.4508 46.6582Z" fill="#33CA7F" fill-opacity="0.22"/>
<path d="M38.5508 46.6582C37.9684 46.8523 37.4414 47.4403 37.3194 48.0338C37.0809 49.1765 38.2235 50.3191 39.3662 50.0806C40.2259 49.9031 40.8915 49.0267 40.8083 48.2002C40.7473 47.6178 40.3091 47.0187 39.7544 46.7469C39.4161 46.5861 38.8947 46.5472 38.5508 46.6582Z" fill="#33CA7F" fill-opacity="0.22"/>
<path d="M45.6508 46.6582C45.0684 46.8523 44.5414 47.4403 44.4194 48.0338C44.1809 49.1765 45.3235 50.3191 46.4662 50.0806C47.3259 49.9031 47.9916 49.0267 47.9084 48.2002C47.8474 47.6178 47.4091 47.0187 46.8545 46.7469C46.5161 46.5861 45.9947 46.5472 45.6508 46.6582Z" fill="#33CA7F" fill-opacity="0.22"/>
<path d="M52.7508 46.6582C52.1683 46.8523 51.6414 47.4403 51.5194 48.0338C51.2808 49.1765 52.4235 50.3191 53.5662 50.0806C54.4259 49.9031 55.0916 49.0267 55.0084 48.2002C54.9473 47.6178 54.5091 47.0187 53.9545 46.7469C53.6161 46.5861 53.0947 46.5472 52.7508 46.6582Z" fill="#33CA7F" fill-opacity="0.22"/>
<path d="M59.8508 46.6582C59.2683 46.8523 58.7414 47.4403 58.6194 48.0338C58.3809 49.1765 59.5235 50.3191 60.6662 50.0806C61.5259 49.9031 62.1915 49.0267 62.1083 48.2002C62.0473 47.6178 61.6091 47.0187 61.0544 46.7469C60.7161 46.5861 60.1947 46.5472 59.8508 46.6582Z" fill="#33CA7F" fill-opacity="0.22"/>
<path d="M3.05079 53.7582C2.46836 53.9523 1.94141 54.5403 1.81938 55.1338C1.58087 56.2765 2.72352 57.4191 3.86618 57.1806C4.72594 57.0031 5.39157 56.1267 5.30836 55.3002C5.24735 54.7178 4.80914 54.1187 4.25446 53.8469C3.9161 53.6861 3.39469 53.6472 3.05079 53.7582Z" fill="#33CA7F" fill-opacity="0.22"/>
<path d="M10.1508 53.7582C9.56837 53.9523 9.04142 54.5403 8.91939 55.1338C8.68087 56.2765 9.82353 57.4191 10.9662 57.1806C11.8259 57.0031 12.4916 56.1267 12.4084 55.3002C12.3474 54.7178 11.9092 54.1187 11.3545 53.8469C11.0161 53.6861 10.4947 53.6472 10.1508 53.7582Z" fill="#33CA7F" fill-opacity="0.22"/>
<path d="M17.2508 53.7582C16.6684 53.9523 16.1414 54.5403 16.0194 55.1338C15.7809 56.2765 16.9235 57.4191 18.0662 57.1806C18.9259 57.0031 19.5916 56.1267 19.5084 55.3002C19.4473 54.7178 19.0091 54.1187 18.4545 53.8469C18.1161 53.6861 17.5947 53.6472 17.2508 53.7582Z" fill="#33CA7F" fill-opacity="0.22"/>
<path d="M24.3508 53.7582C23.7684 53.9523 23.2414 54.5403 23.1194 55.1338C22.8809 56.2765 24.0235 57.4191 25.1662 57.1806C26.0259 57.0031 26.6916 56.1267 26.6084 55.3002C26.5473 54.7178 26.1091 54.1187 25.5545 53.8469C25.2161 53.6861 24.6947 53.6472 24.3508 53.7582Z" fill="#33CA7F" fill-opacity="0.22"/>
<path d="M31.4508 53.7582C30.8684 53.9523 30.3414 54.5403 30.2194 55.1338C29.9809 56.2765 31.1235 57.4191 32.2662 57.1806C33.126 57.0031 33.7916 56.1267 33.7084 55.3002C33.6474 54.7178 33.2092 54.1187 32.6545 53.8469C32.3161 53.6861 31.7947 53.6472 31.4508 53.7582Z" fill="#33CA7F" fill-opacity="0.22"/>
<path d="M38.5508 53.7582C37.9684 53.9523 37.4414 54.5403 37.3194 55.1338C37.0809 56.2765 38.2235 57.4191 39.3662 57.1806C40.2259 57.0031 40.8915 56.1267 40.8083 55.3002C40.7473 54.7178 40.3091 54.1187 39.7544 53.8469C39.4161 53.6861 38.8947 53.6472 38.5508 53.7582Z" fill="#33CA7F" fill-opacity="0.22"/>
<path d="M45.6508 53.7582C45.0684 53.9523 44.5414 54.5403 44.4194 55.1338C44.1809 56.2765 45.3235 57.4191 46.4662 57.1806C47.3259 57.0031 47.9916 56.1267 47.9084 55.3002C47.8474 54.7178 47.4091 54.1187 46.8545 53.8469C46.5161 53.6861 45.9947 53.6472 45.6508 53.7582Z" fill="#33CA7F" fill-opacity="0.22"/>
<path d="M52.7508 53.7582C52.1683 53.9523 51.6414 54.5403 51.5194 55.1338C51.2808 56.2765 52.4235 57.4191 53.5662 57.1806C54.4259 57.0031 55.0916 56.1267 55.0084 55.3002C54.9473 54.7178 54.5091 54.1187 53.9545 53.8469C53.6161 53.6861 53.0947 53.6472 52.7508 53.7582Z" fill="#33CA7F" fill-opacity="0.22"/>
<path d="M59.8508 53.7582C59.2683 53.9523 58.7414 54.5403 58.6194 55.1338C58.3809 56.2765 59.5235 57.4191 60.6662 57.1806C61.5259 57.0031 62.1915 56.1267 62.1083 55.3002C62.0473 54.7178 61.6091 54.1187 61.0544 53.8469C60.7161 53.6861 60.1947 53.6472 59.8508 53.7582Z" fill="#33CA7F" fill-opacity="0.22"/>
</svg>
